# xmcd CD database file
# Copyright (C) 1996 Ti Kan
#
# Track frame offsets:
# 	150
# 	15942
# 	32312
# 	45955
# 	63937
# 	82802
# 	98392
# 	120387
# 	136250
# 	148772
#
# Disc length: 2285 seconds
#
# Revision: 1
# Processed by: cddbd v1.4b41PL1 Copyright (c) Steve Scherf et al.
# Submitted via: DiscPlay 3.4.1
#
DISCID=6308eb0a
DTITLE=Rosanne Cash - Right Or Wrong
DYEAR=1900
DGENRE=
TTITLE0=Right Or Wrong
TTITLE1=Take Me, Take Me
TTITLE2=Man Smart, Woman Smarter
TTITLE3=This Has Happened Before
TTITLE4=Baby, Better Start Turnin' Em Down
TTITLE5=No Memories Hangin' Round
TTITLE6=Couldn't Do Nothin' Right
TTITLE7=Seeing's Believing
TTITLE8=Big River
TTITLE9=Anybody's Darlin' (Anything But Mine)
EXTD=
EXTT0=
EXTT1=
EXTT2=
EXTT3=
EXTT4=
EXTT5=
EXTT6=
EXTT7=
EXTT8=
EXTT9=
PLAYORDER=
